HIERARCHY
ROOT hip
{
  OFFSET 0 0 0
  CHANNELS 6 Xposition Yposition Zposition Zrotation Yrotation Xrotation
  JOINT abdomen
  {
    OFFSET 0 20.6881 -0.73152
    CHANNELS 3 Zrotation Xrotation Yrotation
    JOINT chest
    {
      OFFSET 0 11.7043 -0.48768
      CHANNELS 3 Zrotation Xrotation Yrotation
      JOINT neck
      {
        OFFSET 0 22.1894 -2.19456
        CHANNELS 3 Zrotation Xrotation Yrotation
        JOINT head
        {
          OFFSET -0.24384 7.07133 1.2192
          CHANNELS 3 Zrotation Xrotation Yrotation
          JOINT leftEye
          {
            OFFSET 4.14528 8.04674 8.04672
            CHANNELS 3 Zrotation Xrotation Yrotation
            End Site
            {
              OFFSET 1 0 0
            }
          }
          JOINT rightEye
          {
            OFFSET -3.6576 8.04674 8.04672
            CHANNELS 3 Zrotation Xrotation Yrotation
            End Site
            {
              OFFSET 1 0 0
            }
          }
        }
      }
      JOINT rCollar
      {
        OFFSET -2.68224 19.2634 -4.8768
        CHANNELS 3 Zrotation Xrotation Yrotation
        JOINT rShldr
        {
          OFFSET -8.77824 -1.95073 1.46304
          CHANNELS 3 Zrotation Xrotation Yrotation
          JOINT rForeArm
          {
            OFFSET -28.1742 -1.7115 0.48768
            CHANNELS 3 Zrotation Xrotation Yrotation
            JOINT rHand
            {
              OFFSET -22.5879 0.773209 7.07136
              CHANNELS 3 Zrotation Xrotation Yrotation
              JOINT rThumb1
              {
                OFFSET -1.2192 -0.487915 3.41376
                CHANNELS 3 Zrotation Xrotation Yrotation
                JOINT rThumb2
                {
                  OFFSET -3.37035 -0.52449 3.41376
                  CHANNELS 3 Zrotation Xrotation Yrotation
                  End Site
                  {
                    OFFSET -1.78271 -1.18214 1.43049
                  }
                }
              }
              JOINT rIndex1
              {
                OFFSET -7.75947 0.938293 5.60832
                CHANNELS 3 Zrotation Xrotation Yrotation
                JOINT rIndex2
                {
                  OFFSET -2.54057 -0.884171 1.56538
                  CHANNELS 3 Zrotation Xrotation Yrotation
                  End Site
                  {
                    OFFSET -1.62519 -0.234802 1.16502
                  }
                }
              }
              JOINT rMid1
              {
                OFFSET -8.24714 1.18213 3.41376
                CHANNELS 3 Zrotation Xrotation Yrotation
                JOINT rMid2
                {
                  OFFSET -3.10165 -0.590103 1.0647
                  CHANNELS 3 Zrotation Xrotation Yrotation
                  End Site
                  {
                    OFFSET -2.48547 -0.328903 0.83742
                  }
                }
              }
              JOINT rRing1
              {
                OFFSET -8.82822 0.546677 1.51678
                CHANNELS 3 Zrotation Xrotation Yrotation
                JOINT rRing2
                {
                  OFFSET -2.60934 -0.819778 -0.0198488
                  CHANNELS 3 Zrotation Xrotation Yrotation
                  End Site
                  {
                    OFFSET -2.33842 -0.294052 0.168128
                  }
                }
              }
              JOINT rPinky1
              {
                OFFSET -8.27202 -0.0477905 -0.4584
                CHANNELS 3 Zrotation Xrotation Yrotation
                JOINT rPinky2
                {
                  OFFSET -1.82734 -0.647385 -0.700984
                  CHANNELS 3 Zrotation Xrotation Yrotation
                  End Site
                  {
                    OFFSET -1.69225 -0.51767 -0.607171
                  }
                }
              }
            }
          }
        }
      }
      JOINT lCollar
      {
        OFFSET 2.68224 19.2634 -4.8768
        CHANNELS 3 Zrotation Xrotation Yrotation
        JOINT lShldr
        {
          OFFSET 8.77824 -1.95073 1.46304
          CHANNELS 3 Zrotation Xrotation Yrotation
          JOINT lForeArm
          {
            OFFSET 28.1742 -1.7115 0.48768
            CHANNELS 3 Zrotation Xrotation Yrotation
            JOINT lHand
            {
              OFFSET 22.5879 0.773209 7.07136
              CHANNELS 3 Zrotation Xrotation Yrotation
              JOINT lThumb1
              {
                OFFSET 1.2192 -0.487915 3.41376
                CHANNELS 3 Zrotation Xrotation Yrotation
                JOINT lThumb2
                {
                  OFFSET 3.37035 -0.52449 3.41376
                  CHANNELS 3 Zrotation Xrotation Yrotation
                  End Site
                  {
                    OFFSET 1.78271 -1.18214 1.43049
                  }
                }
              }
              JOINT lIndex1
              {
                OFFSET 7.75947 0.938293 5.60832
                CHANNELS 3 Zrotation Xrotation Yrotation
                JOINT lIndex2
                {
                  OFFSET 2.54057 -0.884171 1.56538
                  CHANNELS 3 Zrotation Xrotation Yrotation
                  End Site
                  {
                    OFFSET 1.62519 -0.234802 1.16502
                  }
                }
              }
              JOINT lMid1
              {
                OFFSET 8.24714 1.18213 3.41376
                CHANNELS 3 Zrotation Xrotation Yrotation
                JOINT lMid2
                {
                  OFFSET 3.10165 -0.590103 1.0647
                  CHANNELS 3 Zrotation Xrotation Yrotation
                  End Site
                  {
                    OFFSET 2.48547 -0.328903 0.83742
                  }
                }
              }
              JOINT lRing1
              {
                OFFSET 8.82822 0.546677 1.51678
                CHANNELS 3 Zrotation Xrotation Yrotation
                JOINT lRing2
                {
                  OFFSET 2.60934 -0.819778 -0.0198488
                  CHANNELS 3 Zrotation Xrotation Yrotation
                  End Site
                  {
                    OFFSET 2.33842 -0.294052 0.168128
                  }
                }
              }
              JOINT lPinky1
              {
                OFFSET 8.27202 -0.0477905 -0.4584
                CHANNELS 3 Zrotation Xrotation Yrotation
                JOINT lPinky2
                {
                  OFFSET 1.82734 -0.647385 -0.700984
                  CHANNELS 3 Zrotation Xrotation Yrotation
                  End Site
                  {
                    OFFSET 1.69225 -0.51767 -0.607171
                  }
                }
              }
            }
          }
        }
      }
    }
  }
  JOINT rButtock
  {
    OFFSET -8.77824 4.35084 1.2192
    CHANNELS 3 Zrotation Xrotation Yrotation
    JOINT rThigh
    {
      OFFSET 0 -1.70687 -2.19456
      CHANNELS 3 Zrotation Xrotation Yrotation
      JOINT rShin
      {
        OFFSET 0 -36.8199 0.73152
        CHANNELS 3 Zrotation Xrotation Yrotation
        JOINT rFoot
        {
          OFFSET 0.73152 -45.1104 -5.12064
          CHANNELS 3 Zrotation Xrotation Yrotation
          End Site
          {
            OFFSET -1.1221 -3.69964 12.103
          }
        }
      }
    }
  }
  JOINT lButtock
  {
    OFFSET 8.77824 4.35084 1.2192
    CHANNELS 3 Zrotation Xrotation Yrotation
    JOINT lThigh
    {
      OFFSET 0 -1.70687 -2.19456
      CHANNELS 3 Zrotation Xrotation Yrotation
      JOINT lShin
      {
        OFFSET 0 -36.8199 0.73152
        CHANNELS 3 Zrotation Xrotation Yrotation
        JOINT lFoot
        {
          OFFSET -0.73152 -45.1104 -5.12064
          CHANNELS 3 Zrotation Xrotation Yrotation
          End Site
          {
            OFFSET 1.1221 -3.69964 12.103
          }
        }
      }
    }
  }
}
MOTION
Frames:	7
Frame Time:	0.00833333
113.155 83.0696 98.0146 0.0 0.0 0.0 -3.29164 -0.00200232 -0.0897132 -0.9105 0.010825 -0.157567 -7.06508e-14 -7.95139e-16 -4.96962e-16 -2.1178e-13 3.18055e-15 -1.54213e-15 -0.0 0.0 0.0 -0.0 0.0 0.0 -3.55855e-14 -1.00169e-16 -1.98785e-16 -7.38097e-13 -2.34814e-15 -6.75868e-15 -1.27099e-11 3.75186e-12 9.54166e-15 -1.45836e-10 -4.21416e-12 -1.30085e-12 -3.43936e-10 -1.00044e-12 -2.77344e-12 -5.9397e-10 -1.73022e-12 -4.77481e-12 -3.43931e-10 -9.98297e-13 -2.77662e-12 7.73091 5.47488 0.417314 -3.43935e-10 -1.00028e-12 -2.77026e-12 2.90554 0.965183 0.102902 -3.43931e-10 -1.00068e-12 -2.77026e-12 10.2786 0.731801 0.0259123 -3.43939e-10 -1.00028e-12 -2.76072e-12 2.22167 -0.733487 -0.20892 -3.57805e-14 -1.05022e-16 -5.46658e-16 -7.413e-13 -2.23012e-15 -8.54774e-15 -1.27691e-11 -3.87809e-12 6.36111e-15 -1.45763e-10 3.41813e-12 -1.30403e-12 -3.439e-10 -9.97937e-13 -2.7798e-12 -5.93889e-10 -1.72386e-12 -4.78753e-12 -3.43902e-10 -9.96309e-13 -2.7639e-12 -7.73091 5.47488 -0.417314 -3.43899e-10 -9.97899e-13 -2.77662e-12 -2.90554 0.965183 -0.102902 -3.43911e-10 -9.98098e-13 -2.7806e-12 -10.2786 0.731801 -0.0259123 -3.43897e-10 -9.96309e-13 -2.78617e-12 -2.22167 -0.733487 0.20892 -2.03217e-16 0.0 -3.88251e-19 -2.14018 -1.93291 0.0183616 -0.00781126 -2.07877 -0.0636661 -0.356495 4.00069 0.117361 2.03217e-16 0.0 3.88251e-19 -2.88043 -9.67722 0.338952 -0.0100226 11.9464 -0.261577 0.458211 -2.28009 -0.00592947
108.996 78.5367 92.321 -7.5031 -55.3916 27.7086 -1.86718 -5.87173 -0.613417 -0.430548 0.545116 -0.340449 -0.211655 -0.205437 -0.647974 1.03357 -1.38166 -1.20891 -0.0 0.0 0.0 -0.0 0.0 0.0 -6.62844e-14 -2.80234e-13 -1.13699e-13 20.1123 6.58752 -2.22666 -4.23935 -1.93011 6.61728 0.00224429 -1.06118 -0.149051 2.75485e-10 1.04437e-11 8.07126e-11 4.77547e-10 1.81578e-11 1.39662e-10 2.75488e-10 1.04439e-11 8.07091e-11 7.73091 5.47488 0.417314 2.75485e-10 1.04428e-11 8.0717e-11 2.90554 0.965183 0.102902 2.75488e-10 1.04424e-11 8.07169e-11 10.2786 0.731801 0.0259123 2.75481e-10 1.04432e-11 8.07283e-11 2.22167 -0.733487 -0.20892 -6.64518e-14 -2.80241e-13 -1.13994e-13 -21.0811 8.77903 0.529745 3.95615 -1.74807 -6.23186 -0.215184 -10.3247 1.36751 -1.73123e-10 -2.69009e-10 -5.3433e-10 -2.85298e-10 -4.57642e-10 -9.18508e-10 -1.73124e-10 -2.69007e-10 -5.34314e-10 -7.73091 5.47488 -0.417314 -1.73122e-10 -2.69011e-10 -5.34327e-10 -2.90554 0.965183 -0.102902 -1.73133e-10 -2.69011e-10 -5.34331e-10 -10.2786 0.731801 -0.0259123 -1.73118e-10 -2.69011e-10 -5.34338e-10 -2.22167 -0.733487 0.20892 -2.03217e-16 0.0 -3.88251e-19 0.712634 -13.6266 3.39246 0.048042 9.87121 0.14603 -0.640162 -0.681822 -4.31686 2.03217e-16 0.0 3.88251e-19 -2.86918 -21.3343 0.524608 0.00332557 25.4921 -0.477871 0.341752 -2.42346 0.388043
108.921 78.4916 92.4504 -7.7623 -56.1011 27.7815 -0.521585 -12.0835 -1.19665 0.0820832 1.11201 -0.534556 -0.456652 -0.418434 -1.34877 2.08118 -2.84993 -2.5145 -0.0 0.0 0.0 -0.0 0.0 0.0 -1.04503e-13 -6.06998e-13 -2.46726e-13 41.9492 13.556 -4.69087 -8.24138 -3.88592 13.6393 -0.00140016 -2.16596 -0.304399 9.76898e-10 3.01394e-11 1.71363e-10 1.69089e-09 5.23138e-11 2.9653e-10 9.769e-10 3.01373e-11 1.71359e-10 7.73091 5.47488 0.417314 9.76899e-10 3.01372e-11 1.71368e-10 2.90554 0.965183 0.102902 9.769e-10 3.01368e-11 1.71368e-10 10.2786 0.731801 0.0259123 9.76893e-10 3.01381e-11 1.71382e-10 2.22167 -0.733487 -0.20892 -1.04641e-13 -6.07008e-13 -2.46965e-13 -43.5344 18.0675 1.12064 7.72065 -3.52234 -12.8277 0.128218 -21.1882 2.96482 2.43069e-12 -5.90587e-10 -1.16211e-09 3.41307e-11 -1.00508e-09 -1.9982e-09 2.4296e-12 -5.90584e-10 -1.1621e-09 -7.73091 5.47488 -0.417314 2.43092e-12 -5.9059e-10 -1.16211e-09 -2.90554 0.965183 -0.102902 2.42102e-12 -5.9059e-10 -1.16212e-09 -10.2786 0.731801 -0.0259123 2.43769e-12 -5.90593e-10 -1.16212e-09 -2.22167 -0.733487 0.20892 -2.03217e-16 0.0 -3.88251e-19 5.35631 -25.8515 7.49658 0.00602431 22.5027 0.393937 -1.72934 -5.56231 -9.06634 2.03217e-16 0.0 3.88251e-19 -2.79599 -33.6148 0.807865 0.164942 39.7477 -0.801786 0.233088 -2.61972 0.897275
108.852 78.445 92.5773 -8.0639 -56.7641 27.9168 0.645918 -17.6046 -1.73232 0.539592 1.6136 -0.706446 -0.648902 -0.615995 -1.94402 2.92555 -4.13758 -3.63515 -0.0 0.0 0.0 -0.0 0.0 0.0 -1.27682e-13 -8.40501e-13 -3.40699e-13 61.9496 19.6394 -7.04774 -11.4052 -5.48204 19.9355 -0.00985231 -3.18347 -0.447767 1.51433e-09 3.33321e-11 2.47685e-10 2.62058e-09 5.79338e-11 4.28535e-10 1.51433e-09 3.33284e-11 2.47681e-10 7.73091 5.47488 0.417314 1.51433e-09 3.3329e-11 2.47691e-10 2.90554 0.965183 0.102902 1.51433e-09 3.33285e-11 2.47691e-10 10.2786 0.731801 0.0259123 1.51432e-09 3.33303e-11 2.47706e-10 2.22167 -0.733487 -0.20892 -1.27794e-13 -8.40514e-13 -3.40888e-13 -63.778 26.3275 1.75244 10.7465 -4.99655 -18.7608 1.03907 -30.8975 4.705 1.68432e-10 -8.05033e-10 -1.59743e-09 3.31885e-10 -1.36948e-09 -2.74595e-09 1.68431e-10 -8.05029e-10 -1.59741e-09 -7.73091 5.47488 -0.417314 1.68432e-10 -8.05037e-10 -1.59743e-09 -2.90554 0.965183 -0.102902 1.68423e-10 -8.05037e-10 -1.59743e-09 -10.2786 0.731801 -0.0259123 1.6844e-10 -8.05041e-10 -1.59744e-09 -2.22167 -0.733487 0.20892 -2.03217e-16 0.0 -3.88251e-19 11.3894 -36.4468 12.2834 -0.143468 33.7694 0.672283 -3.3848 -9.78509 -13.382 2.03217e-16 0.0 3.88251e-19 -2.51732 -44.6452 1.12125 0.543711 52.5784 -1.2873 0.114754 -2.70981 1.17625
108.779 78.3912 92.684 -8.5343 -57.413 28.2283 1.62137 -21.406 -2.07839 0.851944 1.95201 -0.822571 -0.699303 -0.775288 -2.27531 3.39317 -4.9815 -4.28479 -0.0 0.0 0.0 -0.0 0.0 0.0 -1.13264e-13 -8.40853e-13 -3.37039e-13 76.1635 23.6317 -8.77249 -13.3912 -6.47361 24.3371 -0.0194955 -3.98289 -0.560672 1.64179e-09 -4.73264e-12 2.88187e-10 2.84111e-09 -7.786e-12 4.98379e-10 1.64179e-09 -4.73624e-12 2.88181e-10 7.73091 5.47488 0.417314 1.64179e-09 -4.73545e-12 2.88193e-10 2.90554 0.965183 0.102902 1.64179e-09 -4.73604e-12 2.88193e-10 10.2786 0.731801 0.0259123 1.64178e-09 -4.73426e-12 2.88209e-10 2.22167 -0.733487 -0.20892 -1.13357e-13 -8.40867e-13 -3.37189e-13 -78.124 32.0247 2.34074 12.7015 -5.95295 -22.9761 2.1434 -37.791 6.25647 3.10553e-10 -7.51648e-10 -1.55159e-09 5.75451e-10 -1.2763e-09 -2.66386e-09 3.10552e-10 -7.51644e-10 -1.55157e-09 -7.73091 5.47488 -0.417314 3.10552e-10 -7.51653e-10 -1.55158e-09 -2.90554 0.965183 -0.102902 3.10544e-10 -7.51653e-10 -1.55159e-09 -10.2786 0.731801 -0.0259123 3.10562e-10 -7.51659e-10 -1.5516e-09 -2.22167 -0.733487 0.20892 -2.03217e-16 0.0 -3.88251e-19 17.1898 -43.4745 16.8296 -0.336006 41.6263 0.924232 -4.90577 -12.6363 -16.3864 2.03217e-16 0.0 3.88251e-19 -2.05258 -52.5547 1.27434 1.1081 61.8506 -1.9071 -0.034077 -2.53498 0.879299
108.707 78.3305 92.7964 -8.9935 -58.0845 28.5147 2.48124 -22.797 -2.10694 0.954374 2.05602 -0.861884 -0.548223 -0.875214 -2.23652 3.38388 -5.22269 -4.26741 -0.0 0.0 0.0 -0.0 0.0 0.0 -3.41203e-14 -4.56339e-13 -1.52038e-13 81.6804 24.7446 -9.34293 -14.1018 -6.8137 26.0201 -0.0259174 -4.43648 -0.62487 1.08445e-09 -1.63081e-10 3.1184e-10 1.87676e-09 -2.81683e-10 5.38717e-10 1.08445e-09 -1.63081e-10 3.11829e-10 7.73091 5.47488 0.417314 1.08445e-09 -1.63081e-10 3.11844e-10 2.90554 0.965183 0.102902 1.08445e-09 -1.63082e-10 3.11845e-10 10.2786 0.731801 0.0259123 1.08444e-09 -1.63081e-10 3.1186e-10 2.22167 -0.733487 -0.20892 -3.42048e-14 -4.56351e-13 -1.52161e-13 -84.0101 34.115 2.75305 13.489 -6.3485 -24.7593 2.77043 -40.8299 7.0563 4.71694e-10 -1.87043e-10 -6.16729e-10 8.27423e-10 -3.08518e-10 -1.04666e-09 4.71692e-10 -1.8704e-10 -6.16712e-10 -7.73091 5.47488 -0.417314 4.71694e-10 -1.87049e-10 -6.16726e-10 -2.90554 0.965183 -0.102902 4.71685e-10 -1.87048e-10 -6.1673e-10 -10.2786 0.731801 -0.0259123 4.71702e-10 -1.87054e-10 -6.16741e-10 -2.22167 -0.733487 0.20892 -2.03217e-16 0.0 -3.88251e-19 20.1983 -45.9845 19.2106 -0.437994 44.7227 1.03364 -5.54336 -13.7758 -17.3787 2.03217e-16 0.0 3.88251e-19 -1.56664 -56.1332 1.00692 1.53597 66.2146 -2.35643 -0.224134 -1.88695 -0.295128
108.636 78.2751 92.9125 -9.5199 -58.7725 28.8677 3.2804 -22.4674 -1.89613 0.906357 1.99289 -0.846228 -0.251727 -0.933069 -1.93339 3.04134 -5.03325 -3.77269 -0.0 0.0 0.0 -0.0 0.0 0.0 9.06811e-14 2.00295e-13 1.60366e-13 80.8589 23.8259 -9.02143 -13.984 -6.74573 25.7506 -0.028613 -4.645 -0.654409 4.32428e-11 -4.04368e-10 3.21873e-10 7.52055e-11 -6.99122e-10 5.55241e-10 4.3247e-11 -4.04364e-10 3.21854e-10 7.73091 5.47488 0.417314 4.32427e-11 -4.04365e-10 3.21873e-10 2.90554 0.965183 0.102902 4.32422e-11 -4.04367e-10 3.21875e-10 10.2786 0.731801 0.0259123 4.32402e-11 -4.04366e-10 3.21888e-10 2.22167 -0.733487 -0.20892 9.05979e-14 2.00287e-13 1.60261e-13 -83.7768 33.6328 2.9888 13.5181 -6.39184 -24.7949 2.80493 -41.1374 7.12597 6.43925e-10 7.36231e-10 9.42881e-10 1.08138e-09 1.27284e-09 1.64926e-09 6.43921e-10 7.36232e-10 9.42898e-10 -7.73091 5.47488 -0.417314 6.43924e-10 7.36226e-10 9.42882e-10 -2.90554 0.965183 -0.102902 6.43915e-10 7.36226e-10 9.42882e-10 -10.2786 0.731801 -0.0259123 6.4393e-10 7.36221e-10 9.42871e-10 -2.22167 -0.733487 0.20892 -2.03217e-16 0.0 -3.88251e-19 20.3863 -45.4553 19.3777 -0.425599 44.419 1.00081 -5.39204 -13.7501 -16.8815 2.03217e-16 0.0 3.88251e-19 -1.1211 -56.6141 0.382415 1.62058 67.0723 -2.44678 -0.395079 -0.9049 -2.09158
